<svg xmlns="http://www.w3.org/2000/svg" viewBox="0 0 128 128">
  <defs>
    <linearGradient id="bg" x1="0%" y1="0%" x2="100%" y2="100%">
      <stop offset="0%" stop-color="#00c6ff"/>
      <stop offset="100%" stop-color="#0072ff"/>
    </linearGradient>
    <linearGradient id="shield" x1="0%" y1="0%" x2="0%" y2="100%">
      <stop offset="0%" stop-color="#ffffff" stop-opacity=".95"/>
      <stop offset="100%" stop-color="#d7ecff"/>
    </linearGradient>
    <filter id="shadow" x="-20%" y="-20%" width="140%" height="140%">
      <feDropShadow dx="0" dy="4" stdDeviation="4" flood-color="#003b73" flood-opacity=".25"/>
    </filter>
  </defs>
  <circle cx="64" cy="64" r="60" fill="url(#bg)"/>
  <g filter="url(#shadow)">
    <path fill="url(#shield)" d="M64 28l30 12v26c0 20-13.7 38.3-30 44-16.3-5.7-30-24-30-44V40z"/>
    <path fill="#00a6ff" d="M64 42l18 7v16c0 12.7-7.5 24.4-18 28-10.5-3.6-18-15.3-18-28V49z" opacity=".4"/>
    <path fill="none" stroke="#0072ff" stroke-width="4" stroke-linecap="round" stroke-linejoin="round" d="M48 70l10 10 20-20"/>
    <circle cx="64" cy="56" r="6" fill="#ffffff" opacity=".8"/>
  </g>
</svg>

